:SAMPLES-PER-SECOND 30
:FULLY-SPECIFIED
:DEGREES
190
root  -33.3722 34.8524 6.60756 -170.643 68.3492 -179.688
RightUpLeg  -5.82957 -14.4707 5.24729
RightLeg  1.60698 2.47183 -0.0891126
RightFoot  3.30367 0.016248 0.273884
RightToes  -18.6783 -0.0767321 -0.167136
Spine  -2.16833 -0.709095 0.436138
Spine1  -4.38953 -1.29335 1.5829
HEad  -69.2157 -10.2343 11.8104
LeftShoulder1  -1.94126e-019 -3.10601e-018 -2.51263e-017
LeftArm  -3.52545 30.513 -79.5296
LeftForeArm  26.2311 -53.2961 -12.9491
LeftHand  -0.164265 -0.194562 3.4656
RightShoulder  -4.96962e-017 0 -2.36833e-017
RightArm  -14.9902 -30.698 74.0807
RightForeArm  48.0225 48.1059 8.94544
RightHand  -0.142499 -1.36353 -3.94355
LeftUpLeg  -6.60916 9.05549 3.80855
LeftLeg  6.16447 15.4598 0.661328
LeftFoot  7.06782 -0.118933 2.10472
LeftToes  -24.598 1.89912e-006 4.45198e-008
191
root  -33.3179 34.8475 6.66504 -170.586 68.3684 -179.628
RightUpLeg  -5.78117 -14.398 5.36766
RightLeg  1.62211 2.454 -0.0878156
RightFoot  3.18725 0.0178633 0.267985
RightToes  -18.4682 -0.0760204 -0.166169
Spine  -2.08761 -0.722783 0.475621
Spine1  -4.22582 -1.32099 1.65975
HEad  -69.2187 -10.2085 11.8107
LeftShoulder1  -1.94126e-019 -3.10601e-018 -2.51263e-017
LeftArm  -3.49865 32.4785 -78.9877
LeftForeArm  28.1839 -59.4079 -16.605
LeftHand  -0.162997 -0.238679 3.41654
RightShoulder  -4.96962e-017 0 -2.36833e-017
RightArm  -15.0387 -33.0496 73.5149
RightForeArm  49.12 54.2206 11.4646
RightHand  -0.167876 -0.821399 -4.19213
LeftUpLeg  -6.57065 8.97169 3.95403
LeftLeg  6.1981 15.5581 0.674464
LeftFoot  7.09385 -0.120192 2.125
LeftToes  -24.7345 1.89912e-006 4.45198e-008
192
root  -33.27 34.8398 6.72633 -170.415 68.3512 -179.454
RightUpLeg  -5.78077 -14.341 5.54541
RightLeg  1.68369 2.40698 -0.083524
RightFoot  3.07087 0.0195454 0.260787
RightToes  -18.2328 -0.0753895 -0.165263
Spine  -2.01795 -0.797527 0.550888
Spine1  -4.08561 -1.46853 1.80992
HEad  -68.7839 -10.0866 11.6753
LeftShoulder1  -1.94126e-019 -3.10601e-018 -2.51263e-017
LeftArm  -3.94357 34.207 -78.7404
LeftForeArm  31.5955 -64.6607 -21.0371
LeftHand  -0.176326 -0.271554 3.67544
RightShoulder  -4.96962e-017 0 -2.36833e-017
RightArm  -15.6112 -35.0374 73.1799
RightForeArm  50.6724 59.6361 14.4316
RightHand  -0.183507 -0.644851 -4.44225
LeftUpLeg  -6.6397 8.86627 4.14368
LeftLeg  6.39859 15.646 0.732332
LeftFoot  7.04249 -0.119569 2.12273
LeftToes  -24.9918 1.89912e-006 4.45198e-008
193
root  -33.246 34.8316 6.80114 -170.328 68.416 -179.317
RightUpLeg  -5.83064 -14.1031 5.70535
RightLeg  1.86462 2.23998 -0.0705872
RightFoot  2.90092 0.021698 0.246402
RightToes  -17.9773 -0.0748626 -0.164452
Spine  -1.96745 -0.89288 0.624444
Spine1  -3.98508 -1.65529 1.95693
HEad  -68.0407 -9.91001 11.4857
LeftShoulder1  -1.94126e-019 -3.10601e-018 -2.51263e-017
LeftArm  -4.72649 35.4651 -78.7521
LeftForeArm  35.5428 -68.4828 -25.6391
LeftHand  -0.201016 -0.284078 4.17749
RightShoulder  -4.96962e-017 0 -2.36833e-017
RightArm  -16.5602 -36.5107 73.187
RightForeArm  52.7385 63.98 17.631
RightHand  -0.187616 -0.849458 -4.72384
LeftUpLeg  -6.835 8.98776 4.32521
LeftLeg  6.88899 15.5833 0.861467
LeftFoot  6.92251 -0.116006 2.08218
LeftToes  -25.1744 1.89912e-006 4.45198e-008
194
root  -33.1969 34.8316 6.85158 -170.555 68.8449 -179.435
RightUpLeg  -5.72106 -13.8091 5.68911
RightLeg  1.96402 2.36411 -0.0703919
RightFoot  2.78365 0.0227113 0.247709
RightToes  -17.7532 -0.074463 -0.163772
Spine  -1.93352 -0.917609 0.651927
Spine1  -3.91634 -1.70385 2.01266
HEad  -66.8842 -9.65043 11.1603
LeftShoulder1  -1.94126e-019 -3.10601e-018 -2.51263e-017
LeftArm  -5.68854 36.3916 -78.8947
LeftForeArm  39.1798 -71.0629 -29.9252
LeftHand  -0.216345 -0.127715 4.6051
RightShoulder  -4.96962e-017 0 -2.36833e-017
RightArm  -17.4572 -37.4548 73.3737
RightForeArm  55.0264 67.0609 20.6031
RightHand  -0.188508 -0.996659 -4.88793
LeftUpLeg  -6.7993 9.42916 4.38177
LeftLeg  7.31535 15.5267 0.972866
LeftFoot  6.83661 -0.112611 2.05243
LeftToes  -25.2201 1.89912e-006 4.45198e-008
195
root  -33.1733 34.8248 6.91767 -170.636 69.2316 -179.379
RightUpLeg  -5.65477 -13.5093 5.75563
RightLeg  2.08484 2.44425 -0.067607
RightFoot  2.68616 0.023775 0.247591
RightToes  -17.6181 -0.0742137 -0.163258
Spine  -1.89645 -0.983996 0.696454
Spine1  -3.84281 -1.83271 2.10203
HEad  -65.7926 -9.28304 10.8295
LeftShoulder1  -1.94126e-019 -3.10601e-018 -2.51263e-017
LeftArm  -6.427 36.8042 -78.9681
LeftForeArm  42.0762 -72.616 -33.2151
LeftHand  -0.221363 0.0556896 4.85478
RightShoulder  -4.96962e-017 0 -2.36833e-017
RightArm  -18.0679 -37.7725 73.5727
RightForeArm  56.8334 69.0662 23.0389
RightHand  -0.174564 -1.26821 -4.77828
LeftUpLeg  -6.94804 9.51969 4.52662
LeftLeg  8.05722 15.7275 1.18705
LeftFoot  6.68698 -0.109676 2.03872
LeftToes  -25.5341 1.89912e-006 4.45198e-008
196
root  -33.1431 34.8112 6.98822 -170.47 69.7053 -179.097
RightUpLeg  -5.56649 -13.3536 5.91089
RightLeg  2.10805 2.75704 -0.0751815
RightFoot  2.62918 0.0240153 0.25841
RightToes  -17.5629 -0.074138 -0.162946
Spine  -1.86394 -1.03225 0.780988
Spine1  -3.77781 -1.92303 2.2706
HEad  -64.9743 -8.84597 10.5124
LeftShoulder1  -1.94126e-019 -3.10601e-018 -2.51263e-017
LeftArm  -6.85584 36.8336 -78.9958
LeftForeArm  43.7003 -73.363 -35.0721
LeftHand  -0.219969 0.219303 4.95982
RightShoulder  -4.96962e-017 0 -2.36833e-017
RightArm  -18.1422 -37.7403 73.5965
RightForeArm  58.6673 70.4641 25.0066
RightHand  -0.159609 -1.53364 -4.61546
LeftUpLeg  -7.22586 9.97988 4.74675
LeftLeg  9.05263 15.6718 1.45351
LeftFoot  6.33938 -0.0983783 1.93791
LeftToes  -25.7567 1.89912e-006 4.45198e-008
197
root  -33.1322 34.7969 7.06636 -170.063 70.2971 -178.643
RightUpLeg  -5.62047 -13.0602 6.11884
RightLeg  2.19668 3.11946 -0.0802586
RightFoot  2.59236 0.0240147 0.271725
RightToes  -17.5824 -0.0742591 -0.16287
Spine  -1.83427 -1.01876 0.887151
Spine1  -3.71662 -1.8888 2.4806
HEad  -64.5928 -8.41401 10.1848
LeftShoulder1  -1.94126e-019 -3.10601e-018 -2.51263e-017
LeftArm  -6.87906 36.4881 -78.9447
LeftForeArm  44.2199 -73.5581 -35.5791
LeftHand  -0.218012 0.32582 5.00764
RightShoulder  -4.96962e-017 0 -2.36833e-017
RightArm  -17.8841 -37.4253 73.5082
RightForeArm  60.1943 71.3661 26.4159
RightHand  -0.152772 -1.63434 -4.51108
LeftUpLeg  -7.72338 10.2432 4.99981
LeftLeg  10.3603 15.8934 1.83517
LeftFoot  5.89114 -0.086474 1.84201
LeftToes  -25.9873 1.89912e-006 4.45198e-008
198
root  -33.1277 34.7758 7.15772 -169.133 70.9279 -177.674
RightUpLeg  -5.7396 -12.7853 6.5113
RightLeg  2.31463 3.56103 -0.0842988
RightFoot  2.56717 0.0236941 0.288544
RightToes  -17.584 -0.0746001 -0.163065
Spine  -1.79065 -0.975382 1.04607
Spine1  -3.62526 -1.79415 2.79605
HEad  -64.5761 -7.843 9.96237
LeftShoulder1  -1.94126e-019 -3.10601e-018 -2.51263e-017
LeftArm  -6.57193 35.9332 -78.8418
LeftForeArm  44.0599 -73.5254 -35.5176
LeftHand  -0.205657 0.586865 4.94948
RightShoulder  -4.96962e-017 0 -2.36833e-017
RightArm  -17.3458 -36.865 73.2979
RightForeArm  61.259 71.9778 27.4726
RightHand  -0.143671 -1.79482 -4.3911
LeftUpLeg  -8.52052 10.6472 5.41903
LeftLeg  12.2168 16.0123 2.36886
LeftFoot  5.21906 -0.0687412 1.66974
LeftToes  -26.2266 1.89912e-006 4.45198e-008
199
root  -33.1379 34.7527 7.24245 -168.344 71.5727 -176.79
RightUpLeg  -5.86034 -12.504 6.81647
RightLeg  2.54143 4.03005 -0.0794312
RightFoot  2.50883 0.0233913 0.303922
RightToes  -17.9486 -0.0751844 -0.163569
Spine  -1.70697 -0.933724 1.18081
Spine1  -3.45333 -1.70503 3.06217
HEad  -64.7859 -7.22804 9.85771
LeftShoulder1  -1.94126e-019 -3.10601e-018 -2.51263e-017
LeftArm  -6.10873 35.3162 -78.6857
LeftForeArm  43.8379 -73.4935 -35.4746
LeftHand  -0.194319 0.973606 5.03588
RightShoulder  -4.96962e-017 0 -2.36833e-017
RightArm  -16.6904 -36.083 73.1106
RightForeArm  62.1344 72.3045 28.0224
RightHand  -0.159204 -1.36085 -4.42834
LeftUpLeg  -9.56138 10.2638 5.77143
LeftLeg  14.7162 16.8508 3.23334
LeftFoot  4.66516 -0.0584808 1.59718
LeftToes  -26.5494 1.89912e-006 4.45198e-008
200
root  -33.1501 34.7348 7.32141 -167.717 72.2151 -175.979
RightUpLeg  -5.83218 -12.1466 7.05516
RightLeg  2.67684 4.36562 -0.0757191
RightFoot  2.49752 0.0231605 0.316963
RightToes  -18.3539 -0.076035 -0.164414
Spine  -1.57987 -0.889722 1.26778
Spine1  -3.19319 -1.61543 3.23281
HEad  -65.0053 -6.57518 9.93004
LeftShoulder1  -1.94126e-019 -3.10601e-018 -2.51263e-017
LeftArm  -4.75255 34.6072 -77.8348
LeftForeArm  43.9395 -73.7286 -36.2444
LeftHand  -0.159753 1.7351 4.86582
RightShoulder  -4.96962e-017 0 -2.36833e-017
RightArm  -15.7443 -34.935 72.8044
RightForeArm  62.2042 72.219 27.8309
RightHand  -0.213949 -0.414055 -4.97702
LeftUpLeg  -10.7592 9.43978 6.10476
LeftLeg  17.7845 17.8926 4.41131
LeftFoot  4.50867 -0.0603724 1.66115
LeftToes  -27.7782 1.89912e-006 4.45198e-008
201
root  -33.1682 34.7248 7.40026 -167.191 73.0205 -175.262
RightUpLeg  -5.7782 -11.4147 7.23401
RightLeg  2.77679 4.43265 -0.0691373
RightFoot  2.53703 0.023293 0.323386
RightToes  -18.6203 -0.0771751 -0.165638
Spine  -1.45979 -0.77343 1.33017
Spine1  -2.94427 -1.38199 3.35218
HEad  -65.0355 -5.99667 9.7986
LeftShoulder1  -1.94126e-019 -3.10601e-018 -2.51263e-017
LeftArm  -2.14716 33.8759 -75.787
LeftForeArm  44.512 -74.3478 -38.3615
LeftHand  -0.112695 2.26428 3.82116
RightShoulder  -4.96962e-017 0 -2.36833e-017
RightArm  -14.0712 -33.6113 71.8528
RightForeArm  62.695 72.5788 28.5508
RightHand  -0.241815 0.27677 -5.0115
LeftUpLeg  -12.0676 8.93699 6.40838
LeftLeg  21.1368 18.5327 5.70439
LeftFoot  4.72855 -0.0695634 1.82505
LeftToes  -29.2604 1.89912e-006 4.45198e-008
